<svg width="210" height="79" viewBox="0 0 210 79" fill="none" xmlns="http://www.w3.org/2000/svg">
<path d="M13.8312 16.2398C13.8312 18.418 13.8312 20.5962 13.8312 22.7744C14.6406 22.7744 15.4501 22.7744 16.3102 22.7744C16.3102 24.262 16.3102 25.6964 16.3102 27.184C14.1347 27.5559 10.9475 28.1934 9.88508 25.5371C8.6709 21.6056 8.82267 17.3555 9.37917 13.2647C9.68272 11.6709 10.391 9.81141 12.1111 9.38639C15.0454 8.96138 17.9797 10.0239 20.7622 10.8208C21.1163 7.73945 21.774 4.7112 22.1281 1.68295C18.435 0.24852 14.4383 -0.282757 10.4922 0.14226C7.55789 0.461023 4.52242 1.89546 2.90351 4.55182C0.576317 8.32385 -0.0307746 12.999 0.0198165 17.4086C-0.0813657 22.19 0.120997 27.3434 2.65055 31.4873C5.48365 36.4281 12.9205 37.6501 16.8667 33.453C17.1702 34.0905 17.4232 34.6749 17.6761 35.3125C19.7503 35.5781 21.8752 35.4187 24 35.4187C24 28.9903 24 22.5619 24 16.1335C20.6104 16.2929 17.2208 16.2929 13.8312 16.2398Z" fill="#FEB700"/>
<path d="M48.0692 2.03616C44.8688 -0.192509 40.7956 -0.298643 37.1587 0.33812C34.4917 0.815692 31.9702 2.4076 30.5155 4.90159C27.994 9.57119 27.897 15.3021 28.0425 20.6084C28.3819 25.4903 29.3032 31.115 33.328 34.0335C37.1587 36.4744 42.0078 36.5275 46.0811 34.8295C49.4754 33.3967 51.4151 29.6823 52.1909 25.9678C53.2092 20.8207 53.2577 15.4612 52.3849 10.261C51.8515 7.0772 50.6392 3.84032 48.0692 2.03616ZM43.899 25.6495C43.2201 28.4088 39.3893 28.568 37.7891 26.7107C36.8678 24.8535 36.8193 22.6248 36.7708 20.6084C36.7708 17.3715 36.5768 14.0816 37.3527 10.9508C38.2255 8.03234 42.9292 8.03234 43.7535 11.0039C44.0444 12.0121 44.1414 13.1264 44.3354 14.1877C44.2869 17.9552 44.7233 21.8819 43.899 25.6495Z" fill="#FEB700"/>
<path d="M65.4612 0.320999C62.0532 0.852273 58.9459 3.29613 57.693 6.69628C56.0391 11.1058 55.8386 15.9404 56.0892 20.6156C56.4401 24.7064 57.0415 29.1691 59.6977 32.3568C61.7024 34.8006 64.7596 35.7569 67.7165 35.9694C71.5756 36.1819 75.8857 35.3319 78.4918 31.9849C81.4988 27.8409 81.7995 22.422 82 17.428C81.7494 12.7528 81.5991 7.59944 78.6922 3.77428C75.3845 -0.104019 69.9217 -0.422783 65.4612 0.320999ZM72.8285 22.2095C72.5779 24.0689 72.7784 26.7784 70.8238 27.6284C69.1198 28.266 66.4134 28.1066 65.7118 26.0346C64.6092 22.3688 65.0603 18.4905 65.0102 14.7716C65.2607 12.7528 65.1104 9.99017 67.2654 9.08701C69.0196 8.44948 71.5756 8.82137 72.177 10.9465C73.2294 14.5591 72.7784 18.4374 72.8285 22.2095Z" fill="#FEB700"/>
<path d="M97.6891 0.0547146C93.4594 -0.0547079 89.2297 0.0547112 85 0C85.0516 11.9818 85 23.9635 85 36C88.7139 36 92.4278 36 96.1932 36C99.5976 35.9453 103.157 34.9605 105.633 32.3891C108.263 29.5988 109.347 25.6596 109.811 21.8298C110.172 16.1398 110.327 9.95745 107.283 5.03343C105.272 1.58662 101.3 0.218848 97.6891 0.0547146ZM99.3913 26.3161C98.1018 28.0122 95.8322 27.7933 93.9752 27.7386C93.9752 21.3921 93.9752 15.0456 93.9752 8.7538C95.8322 8.69909 98.0502 8.48025 99.3397 10.1763C100.732 12.4742 100.526 15.3739 100.629 18C100.526 20.7356 100.836 23.7994 99.3913 26.3161Z" fill="#FEB700"/>
<path d="M129.378 0C128.713 7.89041 127.894 15.7808 127.177 23.6712C126.921 23.6712 126.409 23.7808 126.154 23.7808C125.795 22.0822 125.693 20.3288 125.386 18.5753C124.669 12.3836 123.85 6.19178 123.134 0C119.756 0.0547945 116.378 -0.0547995 113 0.0547895C115.252 12 117.094 24.0548 119.142 36C123.85 36 128.559 36 133.268 36C135.213 24 137.004 11.9452 139 0C135.827 0 132.602 0 129.378 0Z" fill="#FEB700"/>
<path d="M142.05 36C145.017 36 148.034 36 151 36C151 24 151 12 151 0C147.983 0 145.017 0 142 0C142.101 12 142.05 24 142.05 36Z" fill="#FEB700"/>
<path d="M156.044 36C161.202 36 166.361 36 171.519 36C171.65 33.3151 171.65 30.6301 172 27.9452C169.29 27.8904 166.536 27.9452 163.825 27.9452C163.825 25.9178 163.825 23.8356 163.825 21.8082C166.011 21.8082 168.24 21.8082 170.426 21.8082C170.426 19.2877 170.426 16.7671 170.426 14.2466C168.197 14.3014 166.011 14.2466 163.781 14.2466C163.781 12.4384 163.781 10.5753 163.781 8.76712C166.361 8.76712 168.896 8.76712 171.475 8.76712C171.607 5.86301 171.607 2.90411 171.956 0C166.623 0 161.29 0 156 0C156.044 12 156.044 24 156.044 36Z" fill="#FEB700"/>
<path d="M206.927 35.8907C208.086 23.9272 208.942 11.9636 210 0C207.28 0 204.51 0 201.79 0C201.437 6.33687 201.135 12.6738 200.833 19.0106C200.631 18.956 200.228 18.9014 199.976 18.9014C199.372 12.6191 198.314 6.33687 197.659 0.0546232C194.687 0.0546232 191.766 0.0546232 188.844 0.0546232C188.24 6.3915 187.384 12.6738 186.679 19.0106C186.477 19.0106 186.074 18.956 185.873 18.956C185.772 16.9347 185.671 14.9681 185.57 12.9469L185.369 12.6191C185.319 8.41274 184.664 4.261 184.613 0.0546232C181.742 0.0546232 178.871 0.0546232 176 0.0546232C176.252 3.27769 176.554 6.50076 176.957 9.66919C177.662 18.4097 178.72 27.1502 179.375 35.8907C183.001 36.0546 186.628 35.9454 190.305 36C191.363 30.5372 191.716 24.9105 193.076 19.5569C193.881 21.7967 194.083 24.2549 194.587 26.6039C195.09 29.6631 195.846 32.7223 196.098 35.8361C199.674 36.0546 203.301 35.8361 206.927 35.8907Z" fill="#FEB700"/>
<path d="M13.7231 49.656V50.936H6.49113V58.68H13.5311V59.96H6.49113V71H5.08313V49.656H13.7231ZM28.1311 60.216V57.944H29.4111V71H28.1311V68.664C26.9578 70.456 25.2618 71.352 23.0431 71.352C21.2725 71.352 19.7685 70.7227 18.5311 69.464C17.2938 68.2053 16.6751 66.5413 16.6751 64.472C16.6751 62.4453 17.2618 60.8027 18.4351 59.544C19.6085 58.2853 21.1445 57.656 23.0431 57.656C25.2191 57.656 26.9151 58.5093 28.1311 60.216ZM23.1071 58.872C21.7205 58.872 20.5258 59.3733 19.5231 60.376C18.5205 61.3573 18.0191 62.6907 18.0191 64.376C18.0191 65.9333 18.4778 67.288 19.3951 68.44C20.3125 69.5707 21.5605 70.136 23.1391 70.136C24.6965 70.136 25.9231 69.5813 26.8191 68.472C27.7365 67.3413 28.1951 65.976 28.1951 64.376C28.1951 62.6053 27.6725 61.2507 26.6271 60.312C25.5818 59.352 24.4085 58.872 23.1071 58.872ZM34.0071 71V57.944H35.2871V59.576C36.0338 58.296 37.1645 57.656 38.6791 57.656C40.5138 57.656 41.7298 58.4453 42.3271 60.024C43.0738 58.4453 44.3645 57.656 46.1991 57.656C47.4365 57.656 48.4178 58.0187 49.1431 58.744C49.8898 59.4907 50.2631 60.6747 50.2631 62.296V71H48.9831V62.296C48.9831 61.0373 48.7271 60.1413 48.2151 59.608C47.7458 59.1173 47.0951 58.872 46.2631 58.872C45.6231 58.872 45.0578 59 44.5671 59.256C44.0978 59.512 43.7458 59.8 43.5111 60.12C43.2978 60.44 43.1271 60.8347 42.9991 61.304C42.8925 61.7733 42.8285 62.1253 42.8071 62.36C42.7858 62.5947 42.7751 62.8507 42.7751 63.128V71H41.4951V62.616C41.4951 60.12 40.5351 58.872 38.6151 58.872C37.5271 58.872 36.6951 59.2987 36.1191 60.152C35.5645 60.984 35.2871 62.0827 35.2871 63.448V71H34.0071ZM54.8821 57.944H56.1621V71H54.8821V57.944ZM56.3221 54.456C56.1088 54.6693 55.8421 54.776 55.5221 54.776C55.2021 54.776 54.9248 54.6693 54.6901 54.456C54.4768 54.2213 54.3701 53.9333 54.3701 53.592C54.3701 53.2507 54.4768 52.9733 54.6901 52.76C54.9248 52.5253 55.2021 52.408 55.5221 52.408C55.8421 52.408 56.1088 52.5253 56.3221 52.76C56.5568 52.9733 56.6741 53.2507 56.6741 53.592C56.6741 53.9333 56.5568 54.2213 56.3221 54.456ZM60.7571 47.672H62.0371V71H60.7571V47.672ZM67.5921 78.648L70.7921 71.224L64.5841 57.944H66.0561L71.5281 69.56L76.2961 57.944H77.7681L69.0641 78.648H67.5921ZM98.9244 71H97.3244L90.4124 60.92H89.7724V71H88.3644V49.656H91.4364C93.3777 49.656 94.8817 50.0187 95.9484 50.744C97.4204 51.768 98.1564 53.2933 98.1564 55.32C98.1564 56.4933 97.8684 57.5493 97.2924 58.488C96.7164 59.4053 95.8097 60.0773 94.5724 60.504C93.7617 60.7813 92.887 60.92 91.9484 60.92L98.9244 71ZM89.7724 50.936V59.64H91.8204C93.335 59.64 94.519 59.256 95.3724 58.488C96.247 57.72 96.6844 56.6533 96.6844 55.288C96.6844 53.496 96.055 52.2587 94.7964 51.576C94.0497 51.1493 92.9617 50.936 91.5324 50.936H89.7724ZM114.437 64.632H103.269C103.184 66.232 103.664 67.5547 104.709 68.6C105.754 69.624 107.002 70.136 108.453 70.136C109.477 70.136 110.384 69.8693 111.173 69.336C111.962 68.7813 112.57 68.056 112.997 67.16L114.085 67.8C113.594 68.7387 112.88 69.5707 111.941 70.296C111.002 71 109.808 71.352 108.357 71.352C106.373 71.352 104.805 70.712 103.653 69.432C102.501 68.1307 101.925 66.4987 101.925 64.536C101.925 62.3813 102.544 60.696 103.781 59.48C105.04 58.264 106.533 57.656 108.261 57.656C110.053 57.656 111.546 58.3067 112.741 59.608C113.936 60.9093 114.501 62.584 114.437 64.632ZM103.365 63.416H113.093C112.922 62.0933 112.389 61.0053 111.493 60.152C110.618 59.2987 109.541 58.872 108.261 58.872C106.96 58.872 105.861 59.3093 104.965 60.184C104.069 61.0373 103.536 62.1147 103.365 63.416ZM125.138 59.768L124.05 60.344C123.623 59.3627 122.866 58.872 121.778 58.872C121.095 58.872 120.551 59.0853 120.146 59.512C119.762 59.9387 119.57 60.4187 119.57 60.952C119.57 61.3787 119.709 61.752 119.986 62.072C120.263 62.3707 120.519 62.5733 120.754 62.68C120.989 62.7867 121.447 62.9787 122.13 63.256C122.194 63.2773 122.365 63.3413 122.642 63.448C122.941 63.5547 123.133 63.6293 123.218 63.672C123.325 63.7147 123.495 63.8 123.73 63.928C123.986 64.0347 124.178 64.1413 124.306 64.248C124.434 64.3333 124.583 64.4507 124.754 64.6C124.946 64.7493 125.106 64.9093 125.234 65.08C125.682 65.6347 125.906 66.3387 125.906 67.192C125.906 68.5787 125.479 69.624 124.626 70.328C123.794 71.0107 122.802 71.352 121.65 71.352C120.541 71.352 119.581 71.0427 118.77 70.424C117.959 69.8053 117.415 68.9627 117.138 67.896L118.386 67.512C118.599 68.344 119.005 68.9947 119.602 69.464C120.221 69.912 120.903 70.136 121.65 70.136C122.482 70.136 123.175 69.8693 123.73 69.336C124.285 68.7813 124.562 68.088 124.562 67.256C124.562 66.5733 124.37 66.0507 123.986 65.688C123.602 65.3253 122.962 64.9627 122.066 64.6C121.981 64.5573 121.821 64.4933 121.586 64.408C121.351 64.3013 121.191 64.2373 121.106 64.216C121.042 64.1733 120.903 64.1093 120.69 64.024C120.498 63.9387 120.359 63.8747 120.274 63.832C120.21 63.7893 120.093 63.7253 119.922 63.64C119.773 63.5547 119.655 63.4907 119.57 63.448C119.506 63.384 119.421 63.3093 119.314 63.224C119.207 63.1387 119.111 63.0533 119.026 62.968C118.941 62.8827 118.866 62.7973 118.802 62.712C118.418 62.2 118.226 61.6347 118.226 61.016C118.226 60.0347 118.557 59.2347 119.218 58.616C119.879 57.976 120.711 57.656 121.714 57.656C123.399 57.656 124.541 58.36 125.138 59.768ZM132.811 59.16H130.539V71H129.259V59.16H127.819V57.944H129.259V53.272H130.539V57.944H132.811V59.16ZM146.006 60.216V57.944H147.286V71H146.006V68.664C144.833 70.456 143.137 71.352 140.918 71.352C139.147 71.352 137.643 70.7227 136.406 69.464C135.169 68.2053 134.55 66.5413 134.55 64.472C134.55 62.4453 135.137 60.8027 136.31 59.544C137.483 58.2853 139.019 57.656 140.918 57.656C143.094 57.656 144.79 58.5093 146.006 60.216ZM140.982 58.872C139.595 58.872 138.401 59.3733 137.398 60.376C136.395 61.3573 135.894 62.6907 135.894 64.376C135.894 65.9333 136.353 67.288 137.27 68.44C138.187 69.5707 139.435 70.136 141.014 70.136C142.571 70.136 143.798 69.5813 144.694 68.472C145.611 67.3413 146.07 65.976 146.07 64.376C146.07 62.6053 145.547 61.2507 144.502 60.312C143.457 59.352 142.283 58.872 140.982 58.872ZM151.882 57.944H153.162V65.816C153.162 67.3307 153.439 68.4187 153.994 69.08C154.591 69.784 155.455 70.136 156.586 70.136C157.717 70.136 158.581 69.784 159.178 69.08C159.733 68.4187 160.01 67.3307 160.01 65.816V57.944H161.29V66.168C161.29 67.704 160.959 68.8987 160.298 69.752C159.466 70.8187 158.229 71.352 156.586 71.352C154.943 71.352 153.706 70.8187 152.874 69.752C152.213 68.8987 151.882 67.704 151.882 66.168V57.944ZM165.913 71V57.944H167.193V59.64C167.769 58.3173 168.729 57.656 170.073 57.656C170.585 57.656 171.044 57.7627 171.449 57.976L170.809 59.128C170.575 58.9573 170.255 58.872 169.849 58.872C169.231 58.872 168.719 59.0533 168.313 59.416C167.929 59.7573 167.663 60.248 167.513 60.888C167.385 61.5067 167.3 62.0293 167.257 62.456C167.215 62.8827 167.193 63.3947 167.193 63.992V71H165.913ZM184.85 60.216V57.944H186.13V71H184.85V68.664C183.677 70.456 181.981 71.352 179.762 71.352C177.991 71.352 176.487 70.7227 175.25 69.464C174.013 68.2053 173.394 66.5413 173.394 64.472C173.394 62.4453 173.981 60.8027 175.154 59.544C176.327 58.2853 177.863 57.656 179.762 57.656C181.938 57.656 183.634 58.5093 184.85 60.216ZM179.826 58.872C178.439 58.872 177.245 59.3733 176.242 60.376C175.239 61.3573 174.738 62.6907 174.738 64.376C174.738 65.9333 175.197 67.288 176.114 68.44C177.031 69.5707 178.279 70.136 179.858 70.136C181.415 70.136 182.642 69.5813 183.538 68.472C184.455 67.3413 184.914 65.976 184.914 64.376C184.914 62.6053 184.391 61.2507 183.346 60.312C182.301 59.352 181.127 58.872 179.826 58.872ZM190.726 71V57.944H192.006V59.992C192.881 58.4347 194.214 57.656 196.006 57.656C197.627 57.656 198.833 58.264 199.622 59.48C200.049 60.1627 200.262 61.2613 200.262 62.776V71H198.982V62.776C198.982 61.56 198.811 60.6853 198.47 60.152C197.958 59.2987 197.105 58.872 195.91 58.872C194.459 58.872 193.393 59.48 192.71 60.696C192.241 61.528 192.006 62.7013 192.006 64.216V71H190.726ZM208.53 59.16H206.258V71H204.978V59.16H203.538V57.944H204.978V53.272H206.258V57.944H208.53V59.16Z" fill="#FEB700"/>
</svg>
