<svg width="343" height="56" viewBox="0 0 343 56" fill="none" xmlns="http://www.w3.org/2000/svg">
<path d="M22.5909 25.2619C22.5909 28.6502 22.5909 32.0386 22.5909 35.4269C23.9131 35.4269 25.2352 35.4269 26.6399 35.4269C26.6399 37.7409 26.6399 39.9722 26.6399 42.2862C23.0867 42.8647 17.8809 43.8564 16.1456 39.7243C14.1625 33.6088 14.4104 26.9974 15.3193 20.6339C15.8151 18.1547 16.972 15.2622 19.7814 14.6011C24.5741 13.9399 29.3668 15.5928 33.9115 16.8324C34.49 12.0391 35.5642 7.32854 36.1426 2.61793C30.1105 0.386586 23.5825 -0.439844 17.1372 0.221294C12.3446 0.717147 7.38663 2.94849 4.7424 7.08061C0.941318 12.9482 -0.0502652 20.2207 0.0323669 27.08C-0.132897 34.5178 0.197629 42.5341 4.32924 48.9802C8.95664 56.666 21.1036 58.5667 27.5489 52.038C28.0447 53.0297 28.4578 53.9388 28.871 54.9305C32.2589 55.3437 35.7294 55.0958 39.2 55.0958C39.2 45.0961 39.2 35.0963 39.2 25.0966C33.6636 25.3445 28.1273 25.3445 22.5909 25.2619Z" fill="#FEB700"/>
<path d="M78.513 3.16736C73.2857 -0.299459 66.6327 -0.464556 60.6926 0.525964C56.3365 1.26885 52.218 3.74516 49.842 7.6247C45.7235 14.8885 45.5651 23.8032 45.8027 32.0575C46.3571 39.6515 47.8619 48.4011 54.4357 52.941C60.6926 56.738 68.6128 56.8205 75.2657 54.1792C80.8099 51.9505 83.9779 46.1724 85.2452 40.3944C86.9084 32.3877 86.9876 24.0508 85.562 15.9616C84.6908 11.009 82.7107 5.97384 78.513 3.16736ZM71.7017 39.8992C70.5928 44.1914 64.3359 44.439 61.7222 41.55C60.2174 38.661 60.1382 35.1942 60.059 32.0575C60.059 27.0224 59.7422 21.9047 61.0094 17.0346C62.4351 12.4948 70.1176 12.4948 71.4641 17.1172C71.9393 18.6855 72.0977 20.4189 72.4145 22.0698C72.3353 27.9304 73.0481 34.0386 71.7017 39.8992Z" fill="#FEB700"/>
<path d="M106.92 0.499332C101.354 1.32576 96.2784 5.12731 94.2319 10.4164C91.5306 17.2758 91.2031 24.7962 91.6124 32.0688C92.1854 38.4322 93.1677 45.3742 97.5062 50.3328C100.781 54.1343 105.774 55.6219 110.604 55.9524C116.907 56.283 123.947 54.9607 128.203 49.7543C133.115 43.3081 133.606 34.8786 133.933 27.1102C133.524 19.8377 133.278 11.8214 128.531 5.87109C123.128 -0.161808 114.205 -0.657663 106.92 0.499332ZM118.953 34.548C118.544 37.4405 118.871 41.6553 115.679 42.9776C112.896 43.9693 108.475 43.7214 107.329 40.4983C105.528 34.796 106.265 28.7631 106.183 22.9781C106.593 19.8377 106.347 15.5403 109.867 14.1353C112.732 13.1436 116.907 13.7221 117.889 17.0278C119.608 22.6475 118.871 28.6804 118.953 34.548Z" fill="#FEB700"/>
<path d="M159.559 0.0851116C152.65 -0.0851012 145.742 0.0851064 138.833 0C138.918 18.6383 138.833 37.2766 138.833 56C144.899 56 150.965 56 157.116 56C162.676 55.9149 168.489 54.383 172.533 50.383C176.83 46.0425 178.599 39.9149 179.358 33.9575C179.947 25.1064 180.2 15.4894 175.229 7.82978C171.944 2.46808 165.456 0.340431 159.559 0.0851116ZM162.339 40.9362C160.233 43.5745 156.526 43.234 153.493 43.1489C153.493 33.2766 153.493 23.4043 153.493 13.617C156.526 13.5319 160.149 13.1915 162.255 15.8298C164.53 19.4043 164.193 23.9149 164.361 28C164.193 32.2553 164.698 37.0213 162.339 40.9362Z" fill="#FEB700"/>
<path d="M211.317 0C210.231 12.274 208.893 24.5479 207.723 36.8219C207.305 36.8219 206.469 36.9924 206.051 36.9924C205.466 34.3501 205.298 31.6225 204.797 28.895C203.626 19.2633 202.289 9.63166 201.119 0C195.601 0.0852359 190.084 -0.0852437 184.567 0.0852281C188.245 18.6667 191.254 37.4186 194.598 56C202.289 56 209.98 56 217.671 56C220.847 37.3333 223.773 18.5814 227.033 0C221.85 0 216.584 0 211.317 0Z" fill="#FEB700"/>
<path d="M232.015 56C236.861 56 241.788 56 246.633 56C246.633 37.3333 246.633 18.6667 246.633 0C241.706 0 236.861 0 231.933 0C232.098 18.6667 232.015 37.3333 232.015 56Z" fill="#FEB700"/>
<path d="M254.871 56C263.297 56 271.722 56 280.148 56C280.362 51.8234 280.362 47.6469 280.933 43.4703C276.506 43.3851 272.008 43.4703 267.581 43.4703C267.581 40.3166 267.581 37.0776 267.581 33.9239C271.151 33.9239 274.793 33.9239 278.363 33.9239C278.363 30.003 278.363 26.0822 278.363 22.1613C274.721 22.2466 271.151 22.1613 267.51 22.1613C267.51 19.3486 267.51 16.4505 267.51 13.6377C271.722 13.6377 275.864 13.6377 280.077 13.6377C280.291 9.12024 280.291 4.5175 280.862 0C272.151 0 263.44 0 254.8 0C254.871 18.6667 254.871 37.3333 254.871 56Z" fill="#FEB700"/>
<path d="M337.981 55.83C339.874 37.22 341.272 18.61 343 0C338.557 0 334.032 0 329.59 0C329.014 9.85736 328.52 19.7147 328.027 29.5721C327.697 29.4871 327.039 29.4021 326.628 29.4021C325.641 19.6297 323.913 9.85735 322.843 0.0849695C317.989 0.0849695 313.218 0.0849695 308.446 0.0849695C307.459 9.94233 306.06 19.7147 304.908 29.5721C304.579 29.5721 303.921 29.4871 303.592 29.4871C303.427 26.3429 303.263 23.2838 303.098 20.1396L302.769 19.6297C302.687 13.0865 301.617 6.62822 301.535 0.0849695C296.846 0.0849695 292.156 0.0849695 287.467 0.0849695C287.878 5.09863 288.372 10.1123 289.03 15.041C290.182 28.6373 291.909 42.2337 292.979 55.83C298.902 56.085 304.826 55.915 310.832 56C312.56 47.5023 313.135 38.7496 315.357 30.4219C316.673 33.9059 317.002 37.7299 317.825 41.3839C318.648 46.1426 319.882 50.9014 320.293 55.7451C326.134 56.085 332.058 55.7451 337.981 55.83Z" fill="#FEB700"/>
</svg>
