<svg width="138" height="52" viewBox="0 0 138 52" fill="none" xmlns="http://www.w3.org/2000/svg">
<path d="M9.22079 10.3754C9.22079 11.7671 9.22079 13.1587 9.22079 14.5503C9.76043 14.5503 10.3001 14.5503 10.8734 14.5503C10.8734 15.5007 10.8734 16.4172 10.8734 17.3676C9.42316 17.6052 7.29833 18.0125 6.59006 16.3153C5.7806 13.8036 5.88178 11.0882 6.25278 8.47466C6.45515 7.45639 6.92733 6.2684 8.07406 5.99686C10.0302 5.72532 11.9864 6.40417 13.8414 6.91331C14.0775 4.94465 14.516 3.00993 14.7521 1.07522C12.29 0.158776 9.62552 -0.18065 6.99478 0.0908885C5.03859 0.294543 3.01495 1.21099 1.93567 2.90811C0.384211 5.31801 -0.0205164 8.30494 0.013211 11.1222C-0.0542438 14.177 0.0806647 17.4694 1.76704 20.1169C3.65577 23.2735 8.6137 24.0542 11.2444 21.3728C11.4468 21.7801 11.6154 22.1534 11.7841 22.5607C13.1669 22.7304 14.5834 22.6286 16 22.6286C16 18.5216 16 14.4146 16 10.3075C13.7403 10.4094 11.4805 10.4094 9.22079 10.3754Z" fill="#FEB700"/>
<path d="M30.8443 1.30088C28.796 -0.122992 26.1892 -0.1908 23.8616 0.216021C22.1547 0.521137 20.5409 1.53819 19.6099 3.13157C17.9961 6.11493 17.9341 9.77632 18.0272 13.1665C18.2444 16.2854 18.8341 19.879 21.4099 21.7436C23.8616 23.3031 26.965 23.337 29.5719 22.2522C31.7443 21.3368 32.9856 18.9637 33.4822 16.5906C34.1339 13.3021 34.1649 9.87802 33.6063 6.55565C33.265 4.52155 32.4891 2.45354 30.8443 1.30088ZM28.1753 16.3872C27.7409 18.15 25.2892 18.2517 24.265 17.0652C23.6754 15.8786 23.6444 14.4548 23.6133 13.1665C23.6133 11.0985 23.4892 8.99657 23.9857 6.99637C24.5443 5.13177 27.5547 5.13177 28.0822 7.03027C28.2684 7.67441 28.3305 8.38634 28.4547 9.06438C28.4236 11.4714 28.7029 13.9801 28.1753 16.3872Z" fill="#FEB700"/>
<path d="M43.1862 0.205083C40.9579 0.544508 38.9262 2.10586 38.107 4.27818C37.0256 7.0954 36.8945 10.1842 37.0583 13.1711C37.2877 15.7847 37.681 18.6358 39.4177 20.6724C40.7285 22.2337 42.7274 22.8447 44.6608 22.9805C47.184 23.1162 50.0022 22.5732 51.7062 20.4348C53.6723 17.7873 53.8689 14.3251 54 11.1346C53.8362 8.14762 53.7378 4.8552 51.8372 2.41134C49.6745 -0.0664568 46.1026 -0.270111 43.1862 0.205083ZM48.0032 14.1894C47.8394 15.3774 47.9705 17.1084 46.6925 17.6515C45.5783 18.0588 43.8088 17.957 43.35 16.6332C42.6291 14.2912 42.924 11.8134 42.8913 9.43743C43.0551 8.14762 42.9568 6.38261 44.3659 5.80559C45.5128 5.39828 47.184 5.63588 47.5772 6.99357C48.2654 9.30166 47.9705 11.7795 48.0032 14.1894Z" fill="#FEB700"/>
<path d="M64.121 0.0349565C61.414 -0.0349523 58.707 0.0349544 56 0C56.033 7.65501 56 15.31 56 23C58.3769 23 60.7538 23 63.1637 23C65.3425 22.965 67.6203 22.3359 69.2049 20.693C70.8886 18.9103 71.5818 16.3936 71.8789 13.9468C72.11 10.3116 72.209 6.3617 70.2613 3.2158C68.9738 1.01368 66.4319 0.13982 64.121 0.0349565ZM65.2104 16.8131C64.3851 17.8967 62.9326 17.7568 61.7441 17.7219C61.7441 13.6672 61.7441 9.61246 61.7441 5.5927C62.9326 5.55775 64.3521 5.41793 65.1774 6.50152C66.0688 7.96961 65.9367 9.82219 66.0027 11.5C65.9367 13.2477 66.1348 15.2052 65.2104 16.8131Z" fill="#FEB700"/>
<path d="M84.7087 0C84.2736 5.0411 83.7382 10.0822 83.2697 15.1233C83.1024 15.1233 82.7677 15.1933 82.6004 15.1933C82.3661 14.1081 82.2992 12.9878 82.0984 11.8676C81.6299 7.91172 81.0945 3.95586 80.626 0C78.4173 0.0350076 76.2087 -0.0350108 74 0.0350044C75.4724 7.66666 76.6772 15.3683 78.0157 23C81.0945 23 84.1732 23 87.252 23C88.5236 15.3333 89.6949 7.63166 91 0C88.9252 0 86.8169 0 84.7087 0Z" fill="#FEB700"/>
<path d="M93.0335 23C95.0112 23 97.0223 23 99 23C99 15.3333 99 7.66667 99 0C96.9888 0 95.0112 0 93 0C93.067 7.66667 93.0335 15.3333 93.0335 23Z" fill="#FEB700"/>
<path d="M102.03 23C105.576 23 109.123 23 112.669 23C112.76 21.2846 112.76 19.5693 113 17.8539C111.137 17.8189 109.243 17.8539 107.38 17.8539C107.38 16.5586 107.38 15.2283 107.38 13.933C108.883 13.933 110.415 13.933 111.918 13.933C111.918 12.3227 111.918 10.7123 111.918 9.10198C110.385 9.13699 108.883 9.10198 107.35 9.10198C107.35 7.94673 107.35 6.75647 107.35 5.60122C109.123 5.60122 110.866 5.60122 112.639 5.60122C112.73 3.74581 112.73 1.8554 112.97 0C109.303 0 105.637 0 102 0C102.03 7.66667 102.03 15.3333 102.03 23Z" fill="#FEB700"/>
<path d="M136.012 22.9302C136.761 15.2868 137.316 7.6434 138 0C136.24 0 134.447 0 132.687 0C132.459 4.04856 132.264 8.09712 132.068 12.1457C131.938 12.1108 131.677 12.0759 131.514 12.0759C131.123 8.06221 130.439 4.04856 130.015 0.0348982C128.092 0.0348982 126.201 0.0348982 124.311 0.0348982C123.92 4.08346 123.366 8.09712 122.91 12.1457C122.779 12.1457 122.519 12.1108 122.388 12.1108C122.323 10.8194 122.258 9.56297 122.193 8.27162L122.062 8.06221C122.03 5.37481 121.606 2.7223 121.573 0.0348982C119.716 0.0348982 117.858 0.0348982 116 0.0348982C116.163 2.09408 116.359 4.15326 116.619 6.17754C117.076 11.7618 117.76 17.346 118.184 22.9302C120.53 23.0349 122.877 22.9651 125.256 23C125.941 19.5099 126.169 15.915 127.049 12.4947C127.57 13.9256 127.701 15.4962 128.027 16.997C128.353 18.9514 128.841 20.9059 129.004 22.8953C131.319 23.0349 133.665 22.8953 136.012 22.9302Z" fill="#FEB700"/>
<path d="M4.86311 47H7.07111V39.433H11.2111V37.478H7.07111V32.579H11.5791V30.601H4.86311V47ZM14.6435 41.48C14.6435 38.904 14.9655 37.662 16.1615 37.662C17.3575 37.662 17.6795 38.904 17.6795 41.48C17.6795 44.033 17.3345 45.321 16.1615 45.321C14.9885 45.321 14.6435 44.056 14.6435 41.48ZM17.6105 47H19.6345V35.983H17.6105V37.041C17.0585 36.167 16.3685 35.776 15.4255 35.776C13.5855 35.776 12.5965 37.685 12.5965 41.48C12.5965 45.275 13.5855 47.207 15.4255 47.207C16.3685 47.207 17.0585 46.793 17.6105 45.919V47ZM22.0409 47H24.0649V39.341C24.0649 38.237 24.5019 37.662 25.3759 37.662C26.4109 37.662 26.6639 38.283 26.6639 39.594V47H28.6649V39.341C28.6649 38.237 29.1249 37.662 30.0219 37.662C31.1029 37.662 31.3329 38.283 31.3329 39.594V47H33.3569V38.605C33.3569 36.765 32.5979 35.868 30.9649 35.868C29.9299 35.868 29.1249 36.305 28.5269 37.202C27.9749 36.282 27.2849 35.868 26.2959 35.868C25.2839 35.868 24.5479 36.282 24.0419 37.087V35.983H22.0409V47ZM35.8549 47H37.8789V35.983H35.8549V47ZM35.5789 32.694C35.5789 33.43 36.1309 33.982 36.8669 33.982C37.5799 33.982 38.1549 33.407 38.1549 32.694C38.1549 31.958 37.5799 31.383 36.8669 31.383C36.1309 31.383 35.5789 31.958 35.5789 32.694ZM40.4594 47H42.4834V29.589H40.4594V47ZM44.0749 35.983L46.3749 46.034L44.6729 51.439H46.7659L51.2049 35.983H49.2039L47.4559 43.205L46.1679 35.983H44.0749ZM59.45 38.996H59.519L63.268 47H65.637L61.75 38.927C63.797 38.674 64.832 37.317 64.832 34.879C64.832 31.705 63.337 30.601 59.91 30.601H57.242V47H59.45V38.996ZM59.45 37.731V32.533H60.071C61.911 32.533 62.601 33.016 62.601 34.879C62.601 36.88 62.049 37.731 60.14 37.731H59.45ZM72.8594 43.32H70.9964C70.9504 44.769 70.4904 45.482 69.5704 45.482C68.3974 45.482 67.9374 44.424 67.9374 42.193C67.9374 42.101 67.9374 41.986 67.9374 41.871H72.9744C72.9744 41.641 72.9744 41.434 72.9744 41.227C72.9744 37.455 72.0084 35.776 69.4784 35.776C67.1554 35.776 66.0284 37.639 66.0284 41.434C66.0284 45.367 67.0634 47.207 69.5934 47.207C71.5944 47.207 72.8594 45.804 72.8594 43.458C72.8594 43.412 72.8594 43.366 72.8594 43.32ZM67.9374 40.284C67.9374 38.398 68.4894 37.432 69.5014 37.432C70.6054 37.432 71.0194 38.26 71.0194 40.008C71.0194 40.1 71.0194 40.192 71.0194 40.284H67.9374ZM74.3154 44.677V46.793C74.9824 47.069 75.6264 47.207 76.2474 47.207C78.1564 47.207 79.3754 45.988 79.3754 44.125C79.3754 42.745 78.7544 41.871 77.6044 40.813C76.8224 40.077 76.2244 39.663 76.2244 38.812C76.2244 38.076 76.7764 37.547 77.5124 37.547C78.1794 37.547 78.6854 37.777 79.1224 38.283V36.213C78.5704 35.914 77.9954 35.753 77.3744 35.753C75.5574 35.753 74.3154 37.064 74.3154 38.904C74.3154 40.215 75.0054 41.02 76.1324 42.078C76.8914 42.814 77.4664 43.274 77.4664 44.056C77.4664 44.838 76.8914 45.413 76.0174 45.413C75.4194 45.413 74.8674 45.16 74.3154 44.677ZM81.3404 47H83.3644V37.478H84.8824V35.983H83.3644V32.993H81.3404V35.983H80.2364V37.478H81.3404V47ZM87.8437 41.48C87.8437 38.904 88.1657 37.662 89.3617 37.662C90.5577 37.662 90.8797 38.904 90.8797 41.48C90.8797 44.033 90.5347 45.321 89.3617 45.321C88.1887 45.321 87.8437 44.056 87.8437 41.48ZM90.8107 47H92.8347V35.983H90.8107V37.041C90.2587 36.167 89.5687 35.776 88.6257 35.776C86.7857 35.776 85.7967 37.685 85.7967 41.48C85.7967 45.275 86.7857 47.207 88.6257 47.207C89.5687 47.207 90.2587 46.793 90.8107 45.919V47ZM95.1951 43.757C95.1951 46.172 96.1841 47.207 98.5531 47.207C100.922 47.207 101.934 46.172 101.934 43.757V35.983H99.8871V43.872C99.8871 44.884 99.4271 45.413 98.5531 45.413C97.6791 45.413 97.2191 44.884 97.2191 43.872V35.983H95.1951V43.757ZM104.451 47H106.452V40.353C106.452 38.674 107.165 37.915 108.729 37.915C108.844 37.915 108.959 37.915 109.074 37.915V35.776C107.855 35.845 106.981 36.374 106.406 37.593V35.983H104.451V47ZM112.259 41.48C112.259 38.904 112.581 37.662 113.777 37.662C114.973 37.662 115.295 38.904 115.295 41.48C115.295 44.033 114.95 45.321 113.777 45.321C112.604 45.321 112.259 44.056 112.259 41.48ZM115.226 47H117.25V35.983H115.226V37.041C114.674 36.167 113.984 35.776 113.041 35.776C111.201 35.776 110.212 37.685 110.212 41.48C110.212 45.275 111.201 47.207 113.041 47.207C113.984 47.207 114.674 46.793 115.226 45.919V47ZM119.656 47H121.68V39.341C121.68 38.237 122.14 37.662 123.037 37.662C124.118 37.662 124.348 38.283 124.348 39.594V47H126.372V38.605C126.372 36.765 125.613 35.868 123.98 35.868C122.945 35.868 122.186 36.282 121.657 37.087V35.983H119.656V47ZM128.958 47H130.982V37.478H132.5V35.983H130.982V32.993H128.958V35.983H127.854V37.478H128.958V47Z" fill="#FEB700"/>
</svg>
